<svg width="96" height="96" viewBox="0 0 96 96" fill="none" xmlns="http://www.w3.org/2000/svg">
<rect x="1" y="1" width="94" height="94" rx="11" fill="url(#paint0_linear_1834_26813)" stroke="#4869D7" stroke-width="2"/>
<path d="M60.2409 43.7069C60.0314 43.1483 59.5427 42.7992 58.9143 42.7992H51.5136L57.0293 31.1396C57.2388 30.7207 57.1688 30.2318 56.9595 29.813C56.6802 29.3941 56.2613 29.1846 55.7727 29.1846H44.1126C43.5539 29.1846 43.0653 29.4639 42.8557 30.0223L34.687 47.3371C34.4775 47.756 34.5475 48.2449 34.7568 48.6637C35.0361 49.0826 35.455 49.2921 35.9436 49.2921H41.1799L35.2454 64.9313C35.0359 65.5598 35.2454 66.2579 35.804 66.607C36.0136 66.7466 36.2927 66.8166 36.572 66.8166C36.9211 66.8166 37.2702 66.677 37.5495 66.4675L59.8912 45.2428C60.3801 44.8238 60.4499 44.1953 60.2405 43.7067L60.2409 43.7069ZM40.0635 60.184L44.5319 48.3847C44.6715 47.9659 44.6017 47.477 44.3924 47.1279C44.1829 46.7788 43.6942 46.4995 43.2754 46.4995H38.1786L44.9509 31.9075H53.5385L48.0228 43.5671C47.8133 43.986 47.8833 44.4749 48.0926 44.8937C48.3719 45.3126 48.7908 45.5221 49.2794 45.5221H55.4932L40.0635 60.184Z" fill="url(#paint1_linear_1834_26813)"/>
<path d="M46.2772 34.1421C45.9281 34.0026 45.5092 34.1421 45.3694 34.4215L41.739 41.7523C41.5995 42.1014 41.739 42.5203 42.0881 42.6601C42.1579 42.7299 42.2977 42.7299 42.3674 42.7299C42.6467 42.7299 42.8561 42.5903 42.9958 42.311L46.6263 34.9801C46.7658 34.7706 46.6263 34.3517 46.2772 34.1421Z" fill="url(#paint2_linear_1834_26813)"/>
<defs>
<linearGradient id="paint0_linear_1834_26813" x1="12.48" y1="84.48" x2="79.68" y2="14.4" gradientUnits="userSpaceOnUse">
<stop stop-color="#4869D7"/>
<stop offset="1"/>
</linearGradient>
<linearGradient id="paint1_linear_1834_26813" x1="47.4562" y1="29.1846" x2="47.4562" y2="66.8166" gradientUnits="userSpaceOnUse">
<stop stop-color="#E1E8FF"/>
<stop offset="1" stop-color="#325ADD"/>
</linearGradient>
<linearGradient id="paint2_linear_1834_26813" x1="44.1826" y1="34.0874" x2="44.1826" y2="42.7299" gradientUnits="userSpaceOnUse">
<stop stop-color="#E1E8FF"/>
<stop offset="1" stop-color="#325ADD"/>
</linearGradient>
</defs>
</svg>
