<svg width="918" height="753" viewBox="0 0 918 753" fill="none" xmlns="http://www.w3.org/2000/svg">
<g id="No Internet">
<g id="circle">
<path id="Stroke 1" d="M30.8789 345.337V353.108" stroke="#D2D8DF" stroke-width="2.921" stroke-linecap="round"/>
<g id="Group 8">
<path id="Stroke 2" d="M13.4297 349.547L19.7797 356.084" stroke="#D2D8DF" stroke-width="2.921" stroke-linecap="round"/>
<path id="Stroke 4" d="M6 366.949H14.9789" stroke="#D2D8DF" stroke-width="2.921" stroke-linecap="round"/>
<path id="Stroke 6" d="M12.6973 384.66L19.0473 378.123" stroke="#D2D8DF" stroke-width="2.921" stroke-linecap="round"/>
</g>
<path id="Stroke 9" d="M30.8789 386.782V379.011" stroke="#D2D8DF" stroke-width="2.921" stroke-linecap="round"/>
<path id="Stroke 10" d="M43.8291 381.602L38.6484 376.421" stroke="#D2D8DF" stroke-width="2.921" stroke-linecap="round"/>
<path id="Stroke 11" d="M54.1949 368.648H46.4238" stroke="#D2D8DF" stroke-width="2.921" stroke-linecap="round"/>
<path id="Stroke 12" d="M49.0147 350.517L43.834 355.697" stroke="#D2D8DF" stroke-width="2.921" stroke-linecap="round"/>
<path id="Stroke 13" d="M447.926 6V11.1807" stroke="#D2D8DF" stroke-width="2.921" stroke-linecap="round"/>
<path id="Stroke 15" d="M432.387 21.542H437.567" stroke="#D2D8DF" stroke-width="2.921" stroke-linecap="round"/>
<path id="Stroke 16" d="M447.926 37.085V31.9043" stroke="#D2D8DF" stroke-width="2.921" stroke-linecap="round"/>
<path id="Stroke 17" d="M460.882 21.542H455.701" stroke="#D2D8DF" stroke-width="2.921" stroke-linecap="round"/>
<path id="Stroke 18" d="M147.445 223.588V231.359" stroke="#D2D8DF" stroke-width="2.921" stroke-linecap="round"/>
<path id="Stroke 19" d="M124.137 246.902H131.908" stroke="#D2D8DF" stroke-width="2.921" stroke-linecap="round"/>
<path id="Stroke 20" d="M147.445 267.626V259.854" stroke="#D2D8DF" stroke-width="2.921" stroke-linecap="round"/>
<path id="Stroke 21" d="M168.171 246.902H160.4" stroke="#D2D8DF" stroke-width="2.921" stroke-linecap="round"/>
<g id="Group 42">
<path id="Stroke 22" d="M705.031 506.042C711.222 506.042 716.242 511.064 716.242 517.256C716.242 523.45 711.222 528.47 705.031 528.47C698.841 528.47 693.82 523.45 693.82 517.256" stroke="#D2D8DF" stroke-width="2.921" stroke-linecap="round"/>
<path id="Stroke 24" d="M756.204 653.456C757.589 663.126 750.878 672.087 741.212 673.473C731.545 674.857 722.586 668.143 721.201 658.476C719.815 648.808 726.527 639.847 736.192 638.461" stroke="#D2D8DF" stroke-width="2.921" stroke-linecap="round"/>
<path id="Fill 26" fill-rule="evenodd" clip-rule="evenodd" d="M756.34 404.304C762.997 402.227 773.2 394.086 775.562 385.327C777.704 393.07 786.683 402.227 794.784 402.92C785.665 406.149 776.945 415.742 775.562 423.278C774.621 415.597 762.561 405.423 756.34 404.304" fill="#EBECEE"/>
<path id="Fill 28" fill-rule="evenodd" clip-rule="evenodd" d="M73.0312 502.586C76.3607 501.548 81.4604 497.478 82.6413 493.099C83.7123 496.968 88.2006 501.548 92.2514 501.895C87.6926 503.507 83.334 508.305 82.6413 512.073C82.1707 508.232 76.1408 503.145 73.0312 502.586" fill="#EBECEE"/>
<path id="Fill 30" fill-rule="evenodd" clip-rule="evenodd" d="M134.82 142.248C134.82 147.052 130.927 150.943 126.127 150.943C121.324 150.943 117.434 147.052 117.434 142.248C117.434 137.446 121.324 133.553 126.127 133.553C130.927 133.553 134.82 137.446 134.82 142.248" fill="#D1D8DF"/>
<path id="Fill 32" fill-rule="evenodd" clip-rule="evenodd" d="M648.174 688.191C648.174 696.218 641.667 702.725 633.645 702.725C625.618 702.725 619.113 696.218 619.113 688.191C619.113 680.165 625.618 673.658 633.645 673.658C641.667 673.658 648.174 680.165 648.174 688.191" fill="#EBECEE"/>
<path id="Fill 34" fill-rule="evenodd" clip-rule="evenodd" d="M916.557 126.22C916.557 132.588 911.397 137.748 905.033 137.748C898.667 137.748 893.508 132.588 893.508 126.22C893.508 119.852 898.667 114.691 905.033 114.691C911.397 114.691 916.557 119.852 916.557 126.22" fill="#EBECEE"/>
<path id="Stroke 36" fill-rule="evenodd" clip-rule="evenodd" d="M297.279 664.643C297.279 668.657 294.027 671.91 290.014 671.91C286.002 671.91 282.75 668.657 282.75 664.643C282.75 660.628 286.002 657.375 290.014 657.375C294.027 657.375 297.279 660.628 297.279 664.643Z" stroke="#D2D8DF" stroke-width="2.921" stroke-linecap="round"/>
<path id="Stroke 38" fill-rule="evenodd" clip-rule="evenodd" d="M292.964 86.3848C292.964 91.1888 289.072 95.0801 284.271 95.0801C279.471 95.0801 275.578 91.1888 275.578 86.3848C275.578 81.5829 279.471 77.6895 284.271 77.6895C289.072 77.6895 292.964 81.5829 292.964 86.3848Z" stroke="#D2D8DF" stroke-width="2.921" stroke-linecap="round"/>
<path id="Stroke 40" fill-rule="evenodd" clip-rule="evenodd" d="M514.701 745.122C509.146 747.236 502.929 744.444 500.816 738.89C498.702 733.334 501.491 727.113 507.048 725.002C512.601 722.888 518.818 725.677 520.931 731.233C523.046 736.79 520.256 743.008 514.701 745.122Z" stroke="#D2D8DF" stroke-width="2.921" stroke-linecap="round"/>
</g>
</g>
<path id="Fill 1" fill-rule="evenodd" clip-rule="evenodd" d="M362.438 565.398H412.12L386.095 648.203L502.026 531.094H432.229L471.268 359.563L362.438 565.398Z" fill="#5373E7"/>
<g id="Group 6">
<path id="Fill 2" fill-rule="evenodd" clip-rule="evenodd" d="M659.641 307.514C647.392 298.81 633.09 292.811 617.592 290.417C609.114 216.351 546.239 158.83 469.904 158.83C422.334 158.83 379.993 181.18 352.773 215.95C343.223 212.751 333.027 211.005 322.396 211.005C273.589 211.005 233.34 247.591 227.53 294.831C187.138 307.353 157.811 345.009 157.811 389.506C157.811 444.084 201.924 488.346 256.451 488.602C259.259 488.98 262.114 489.201 265.025 489.201H589.122C595.105 490.322 601.245 490.934 607.552 490.934C662.297 490.934 706.659 446.563 706.659 391.827C706.659 356.199 687.856 324.978 659.641 307.514" fill="#F1F2F7"/>
<path id="Fill 4" fill-rule="evenodd" clip-rule="evenodd" d="M384.128 251.377C372.658 246.723 359.895 244.11 346.441 244.11C296.618 244.11 256.242 279.674 256.242 323.536C256.242 327.973 256.665 332.317 257.463 336.548C296.2 281.825 322.894 260.093 384.128 251.377" fill="#E0E2EE"/>
</g>
</g>
</svg>
