<svg width="172" height="44" viewBox="0 0 172 44" fill="none" xmlns="http://www.w3.org/2000/svg">
<rect width="44" height="44" rx="22" fill="url(#paint0_linear_2060_26173)"/>
<path d="M27.3399 20.6603H23.9199L27.0999 13.0203C27.2599 12.6203 26.7599 12.2803 26.4399 12.5803L16.3799 22.6403C16.1198 22.9003 16.2998 23.3203 16.6599 23.3203H20.0799L16.8999 30.9803C16.7398 31.3803 17.2398 31.7203 17.5599 31.4203L27.6199 21.3603C27.8799 21.1003 27.6999 20.6603 27.3398 20.6603L27.3399 20.6603Z" fill="white" fill-opacity="0.92"/>
<path d="M67.5568 35H58.2756V8.81818H67.6335C70.267 8.81818 72.5341 9.34233 74.4347 10.3906C76.3352 11.4304 77.7969 12.9261 78.8196 14.8778C79.8509 16.8295 80.3665 19.1648 80.3665 21.8835C80.3665 24.6108 79.8509 26.9545 78.8196 28.9148C77.7969 30.875 76.3267 32.3793 74.4091 33.4276C72.5 34.4759 70.2159 35 67.5568 35ZM63.8111 30.2571H67.3267C68.9631 30.2571 70.3395 29.9673 71.456 29.3878C72.581 28.7997 73.4247 27.892 73.9872 26.6648C74.5582 25.429 74.8438 23.8352 74.8438 21.8835C74.8438 19.9489 74.5582 18.3679 73.9872 17.1406C73.4247 15.9134 72.5852 15.0099 71.4688 14.4304C70.3523 13.8509 68.9759 13.5611 67.3395 13.5611H63.8111V30.2571ZM88.1641 35.3707C86.9113 35.3707 85.7948 35.1534 84.8147 34.7188C83.8346 34.2756 83.059 33.6236 82.488 32.7628C81.9255 31.8935 81.6442 30.8111 81.6442 29.5156C81.6442 28.4247 81.8445 27.5085 82.2451 26.767C82.6457 26.0256 83.1911 25.429 83.8815 24.9773C84.5718 24.5256 85.3559 24.1847 86.2337 23.9545C87.1201 23.7244 88.0491 23.5625 89.0207 23.4688C90.1627 23.3494 91.0832 23.2386 91.782 23.1364C92.4809 23.0256 92.988 22.8636 93.3033 22.6506C93.6187 22.4375 93.7764 22.1222 93.7764 21.7045V21.6278C93.7764 20.8182 93.5207 20.1918 93.0093 19.7486C92.5065 19.3054 91.7906 19.0838 90.8616 19.0838C89.8815 19.0838 89.1016 19.3011 88.5221 19.7358C87.9425 20.1619 87.559 20.6989 87.3715 21.3466L82.3346 20.9375C82.5903 19.7443 83.0931 18.7131 83.8431 17.8438C84.5931 16.9659 85.5604 16.2926 86.7451 15.8239C87.9383 15.3466 89.319 15.108 90.8871 15.108C91.9781 15.108 93.0221 15.2358 94.0192 15.4915C95.0249 15.7472 95.9156 16.1435 96.6911 16.6804C97.4752 17.2173 98.0931 17.9077 98.5448 18.7514C98.9965 19.5866 99.2224 20.5881 99.2224 21.7557V35H94.0576V32.277H93.9042C93.5889 32.8906 93.167 33.4318 92.6386 33.9006C92.1102 34.3608 91.4752 34.723 90.7337 34.9872C89.9923 35.2429 89.1357 35.3707 88.1641 35.3707ZM89.7238 31.6122C90.5249 31.6122 91.2323 31.4545 91.846 31.1392C92.4596 30.8153 92.9411 30.3807 93.2906 29.8352C93.64 29.2898 93.8147 28.6719 93.8147 27.9815V25.8977C93.6442 26.0085 93.4099 26.1108 93.1116 26.2045C92.8218 26.2898 92.4937 26.3707 92.1272 26.4474C91.7607 26.5156 91.3942 26.5795 91.0278 26.6392C90.6613 26.6903 90.3289 26.7372 90.0306 26.7798C89.3914 26.8736 88.8332 27.0227 88.3559 27.2273C87.8786 27.4318 87.5079 27.7088 87.2437 28.0582C86.9795 28.3991 86.8474 28.8253 86.8474 29.3366C86.8474 30.0781 87.1158 30.6449 87.6528 31.0369C88.1982 31.4205 88.8886 31.6122 89.7238 31.6122ZM101.648 35V15.3636H106.927V18.7898H107.132C107.49 17.571 108.091 16.6506 108.934 16.0284C109.778 15.3977 110.75 15.0824 111.849 15.0824C112.122 15.0824 112.416 15.0994 112.731 15.1335C113.047 15.1676 113.324 15.2145 113.562 15.2741V20.1065C113.307 20.0298 112.953 19.9616 112.501 19.902C112.05 19.8423 111.636 19.8125 111.261 19.8125C110.46 19.8125 109.744 19.9872 109.113 20.3366C108.491 20.6776 107.997 21.1548 107.63 21.7685C107.273 22.3821 107.094 23.0895 107.094 23.8906V35H101.648ZM118.768 35L113.424 15.3636H118.934L121.977 28.5568H122.156L125.326 15.3636H130.734L133.955 28.4801H134.122L137.113 15.3636H142.61L137.279 35H131.514L128.139 22.6506H127.896L124.521 35H118.768ZM143.715 35V15.3636H149.162V35H143.715ZM146.451 12.8324C145.642 12.8324 144.947 12.5639 144.367 12.027C143.796 11.4815 143.511 10.8295 143.511 10.071C143.511 9.32102 143.796 8.67756 144.367 8.14062C144.947 7.59517 145.642 7.32244 146.451 7.32244C147.261 7.32244 147.951 7.59517 148.522 8.14062C149.102 8.67756 149.392 9.32102 149.392 10.071C149.392 10.8295 149.102 11.4815 148.522 12.027C147.951 12.5639 147.261 12.8324 146.451 12.8324ZM157.17 23.6477V35H151.724V15.3636H156.914V18.8281H157.145C157.579 17.6861 158.308 16.7827 159.331 16.1179C160.353 15.4446 161.593 15.108 163.051 15.108C164.414 15.108 165.603 15.4062 166.618 16.0028C167.632 16.5994 168.42 17.4517 168.983 18.5597C169.545 19.6591 169.826 20.9716 169.826 22.4972V35H164.38V23.4688C164.389 22.267 164.082 21.3295 163.46 20.6562C162.838 19.9744 161.981 19.6335 160.89 19.6335C160.157 19.6335 159.51 19.7912 158.947 20.1065C158.393 20.4219 157.958 20.8821 157.643 21.4872C157.336 22.0838 157.179 22.804 157.17 23.6477Z" fill="url(#paint1_linear_2060_26173)"/>
<defs>
<linearGradient id="paint0_linear_2060_26173" x1="33.825" y1="3.85" x2="5.225" y2="35.475" gradientUnits="userSpaceOnUse">
<stop stop-color="#3E63DD"/>
<stop offset="0.140625" stop-color="#4263D9"/>
<stop offset="0.255208" stop-color="#4563D6"/>
<stop offset="1" stop-color="#C3B3D7"/>
</linearGradient>
<linearGradient id="paint1_linear_2060_26173" x1="56" y1="22" x2="172" y2="22" gradientUnits="userSpaceOnUse">
<stop stop-color="#3E63DD"/>
<stop offset="1" stop-color="#E1E8FF"/>
</linearGradient>
</defs>
</svg>
